<svg width="201" height="201" viewBox="0 0 201 201" fill="none" xmlns="http://www.w3.org/2000/svg">
  <g opacity="0.05">
    <path d="M63 122.123C63 120.053 63.6267 118.067 64.7424 116.603L100.268 70.0096C100.817 69.0909 101.516 68.3439 102.314 67.8232C103.143 67.2818 104.057 67 104.984 67C105.91 67 106.824 67.2818 107.654 67.8232C108.451 68.3439 109.15 69.0911 109.7 70.0098L145.192 116.592C145.756 117.309 146.206 118.166 146.516 119.112C146.828 120.064 146.993 121.088 147 122.124C147.007 123.16 146.857 124.188 146.558 125.148C146.259 126.107 145.818 126.978 145.26 127.712C144.702 128.445 144.038 129.025 143.307 129.417C142.577 129.81 141.793 130.008 141.004 130C140.214 129.991 139.434 129.776 138.708 129.368C137.986 128.962 137.333 128.372 136.786 127.633L104.975 85.8811L73.1553 127.643C72.0396 129.107 70.5265 129.929 68.9488 129.929C67.3711 129.929 65.858 129.107 64.7424 127.643C63.6267 126.179 63 124.194 63 122.123Z" fill="white" fill-opacity="0.05"/>
    <circle cx="100.5" cy="100.5" r="94.045" stroke="white" stroke-opacity="0.05" stroke-width="11.09"/>
  </g>
</svg>
