<svg width="139" height="139" viewBox="0 0 139 139" fill="none" xmlns="http://www.w3.org/2000/svg">
  <path d="M56.4174 41.6285C57.7576 41.6285 59.043 42.0342 59.9907 42.7564L90.1531 65.7537C90.7478 66.1094 91.2314 66.5618 91.5684 67.0781C91.919 67.6151 92.1014 68.2068 92.1014 68.8066C92.1014 69.4063 91.919 69.998 91.5684 70.535C91.2314 71.0514 90.7477 71.5038 90.153 71.8595L59.9978 94.8357C59.5337 95.2005 58.9793 95.4918 58.3667 95.6926C57.7504 95.8946 57.0876 96.001 56.4168 96.0057C55.7459 96.0104 55.0806 95.9132 54.4596 95.7198C53.8386 95.5265 53.2744 95.2408 52.7998 94.8795C52.3252 94.5182 51.9498 94.0885 51.6955 93.6154C51.4412 93.1423 51.313 92.6354 51.3185 92.1242C51.324 91.613 51.4631 91.1078 51.7276 90.6379C51.9906 90.1707 52.3724 89.7479 52.8509 89.3938L79.8787 68.8007L52.8442 48.2025C51.8965 47.4803 51.3641 46.5008 51.3641 45.4795C51.3641 44.4581 51.8965 43.4786 52.8442 42.7564C53.7918 42.0342 55.0772 41.6285 56.4174 41.6285Z" fill="white" fill-opacity="0.1"/>
  <circle cx="69.5804" cy="69.5798" r="64.7867" transform="rotate(90 69.5804 69.5798)" stroke="white" stroke-opacity="0.1" stroke-width="8.41386"/>
</svg>
